<mxfile host="app.diagrams.net" agent="Mozilla/5.0 (Windows NT 10.0; Win64; x64) AppleWebKit/537.36 (KHTML, like Gecko) Chrome/126.0.0.0 Safari/537.36" version="24.7.5">
  <diagram name="第 1 页" id="2otNJQx4Th6LUdCDufka">
    <mxGraphModel dx="1221" dy="618" grid="0" gridSize="10" guides="1" tooltips="1" connect="1" arrows="1" fold="1" page="1" pageScale="1" pageWidth="1600" pageHeight="1200" math="0" shadow="0">
      <root>
        <mxCell id="0" />
        <mxCell id="1" parent="0" />
        <mxCell id="UVqMz0SO6O-b6ly85-nw-8" style="edgeStyle=orthogonalEdgeStyle;rounded=0;orthogonalLoop=1;jettySize=auto;html=1;exitX=0.5;exitY=1;exitDx=0;exitDy=0;entryX=0.5;entryY=0;entryDx=0;entryDy=0;" edge="1" parent="1" source="UVqMz0SO6O-b6ly85-nw-2" target="UVqMz0SO6O-b6ly85-nw-7">
          <mxGeometry relative="1" as="geometry" />
        </mxCell>
        <mxCell id="UVqMz0SO6O-b6ly85-nw-2" value="&lt;font style=&quot;font-size: 14px;&quot;&gt;根据key计算哈希值，得到在Node[]中的位置&lt;/font&gt;" style="rounded=1;whiteSpace=wrap;html=1;" vertex="1" parent="1">
          <mxGeometry x="374" y="91" width="191" height="60" as="geometry" />
        </mxCell>
        <mxCell id="UVqMz0SO6O-b6ly85-nw-10" style="edgeStyle=orthogonalEdgeStyle;rounded=0;orthogonalLoop=1;jettySize=auto;html=1;exitX=0.5;exitY=1;exitDx=0;exitDy=0;entryX=0.5;entryY=0;entryDx=0;entryDy=0;" edge="1" parent="1" source="UVqMz0SO6O-b6ly85-nw-7" target="UVqMz0SO6O-b6ly85-nw-9">
          <mxGeometry relative="1" as="geometry" />
        </mxCell>
        <mxCell id="UVqMz0SO6O-b6ly85-nw-13" value="是" style="edgeLabel;html=1;align=center;verticalAlign=middle;resizable=0;points=[];fontSize=14;" vertex="1" connectable="0" parent="UVqMz0SO6O-b6ly85-nw-10">
          <mxGeometry x="-0.236" y="2" relative="1" as="geometry">
            <mxPoint as="offset" />
          </mxGeometry>
        </mxCell>
        <mxCell id="UVqMz0SO6O-b6ly85-nw-15" style="edgeStyle=orthogonalEdgeStyle;rounded=0;orthogonalLoop=1;jettySize=auto;html=1;exitX=1;exitY=0.5;exitDx=0;exitDy=0;entryX=0;entryY=0.5;entryDx=0;entryDy=0;" edge="1" parent="1" source="UVqMz0SO6O-b6ly85-nw-7">
          <mxGeometry relative="1" as="geometry">
            <mxPoint x="639" y="219" as="targetPoint" />
          </mxGeometry>
        </mxCell>
        <mxCell id="UVqMz0SO6O-b6ly85-nw-16" value="否" style="edgeLabel;html=1;align=center;verticalAlign=middle;resizable=0;points=[];fontSize=14;" vertex="1" connectable="0" parent="UVqMz0SO6O-b6ly85-nw-15">
          <mxGeometry x="-0.0541" y="-3" relative="1" as="geometry">
            <mxPoint as="offset" />
          </mxGeometry>
        </mxCell>
        <mxCell id="UVqMz0SO6O-b6ly85-nw-7" value="&lt;font style=&quot;font-size: 14px;&quot;&gt;该位置是否为空&lt;/font&gt;" style="rhombus;whiteSpace=wrap;html=1;" vertex="1" parent="1">
          <mxGeometry x="370" y="180" width="195" height="78" as="geometry" />
        </mxCell>
        <mxCell id="UVqMz0SO6O-b6ly85-nw-12" style="edgeStyle=orthogonalEdgeStyle;rounded=0;orthogonalLoop=1;jettySize=auto;html=1;exitX=0.5;exitY=1;exitDx=0;exitDy=0;entryX=0.5;entryY=0;entryDx=0;entryDy=0;" edge="1" parent="1" source="UVqMz0SO6O-b6ly85-nw-9" target="UVqMz0SO6O-b6ly85-nw-11">
          <mxGeometry relative="1" as="geometry" />
        </mxCell>
        <mxCell id="UVqMz0SO6O-b6ly85-nw-9" value="&lt;font style=&quot;font-size: 14px;&quot;&gt;创建新Node节点&lt;/font&gt;" style="rounded=1;whiteSpace=wrap;html=1;" vertex="1" parent="1">
          <mxGeometry x="408" y="311" width="120" height="60" as="geometry" />
        </mxCell>
        <mxCell id="UVqMz0SO6O-b6ly85-nw-11" value="&lt;font style=&quot;font-size: 14px;&quot;&gt;结束&lt;/font&gt;" style="rounded=1;whiteSpace=wrap;html=1;" vertex="1" parent="1">
          <mxGeometry x="408" y="417" width="120" height="60" as="geometry" />
        </mxCell>
        <mxCell id="UVqMz0SO6O-b6ly85-nw-19" style="edgeStyle=orthogonalEdgeStyle;rounded=0;orthogonalLoop=1;jettySize=auto;html=1;exitX=0.5;exitY=1;exitDx=0;exitDy=0;entryX=0.5;entryY=0;entryDx=0;entryDy=0;" edge="1" parent="1" source="UVqMz0SO6O-b6ly85-nw-17" target="UVqMz0SO6O-b6ly85-nw-18">
          <mxGeometry relative="1" as="geometry" />
        </mxCell>
        <mxCell id="UVqMz0SO6O-b6ly85-nw-20" value="是" style="edgeLabel;html=1;align=center;verticalAlign=middle;resizable=0;points=[];fontSize=14;" vertex="1" connectable="0" parent="UVqMz0SO6O-b6ly85-nw-19">
          <mxGeometry x="-0.3953" y="2" relative="1" as="geometry">
            <mxPoint as="offset" />
          </mxGeometry>
        </mxCell>
        <mxCell id="UVqMz0SO6O-b6ly85-nw-23" style="edgeStyle=orthogonalEdgeStyle;rounded=0;orthogonalLoop=1;jettySize=auto;html=1;exitX=1;exitY=0.5;exitDx=0;exitDy=0;entryX=0.5;entryY=0;entryDx=0;entryDy=0;" edge="1" parent="1">
          <mxGeometry relative="1" as="geometry">
            <mxPoint x="862" y="219.5" as="sourcePoint" />
            <mxPoint x="965" y="311" as="targetPoint" />
          </mxGeometry>
        </mxCell>
        <mxCell id="UVqMz0SO6O-b6ly85-nw-24" value="否" style="edgeLabel;html=1;align=center;verticalAlign=middle;resizable=0;points=[];fontSize=14;" vertex="1" connectable="0" parent="UVqMz0SO6O-b6ly85-nw-23">
          <mxGeometry x="-0.3008" relative="1" as="geometry">
            <mxPoint y="1" as="offset" />
          </mxGeometry>
        </mxCell>
        <mxCell id="UVqMz0SO6O-b6ly85-nw-17" value="&lt;font style=&quot;font-size: 14px;&quot;&gt;判断该节点的key是否和传入的一样&lt;/font&gt;" style="rhombus;whiteSpace=wrap;html=1;" vertex="1" parent="1">
          <mxGeometry x="635" y="180" width="269" height="79" as="geometry" />
        </mxCell>
        <mxCell id="UVqMz0SO6O-b6ly85-nw-21" style="edgeStyle=orthogonalEdgeStyle;rounded=0;orthogonalLoop=1;jettySize=auto;html=1;exitX=0.5;exitY=1;exitDx=0;exitDy=0;entryX=1;entryY=0.5;entryDx=0;entryDy=0;" edge="1" parent="1" source="UVqMz0SO6O-b6ly85-nw-18" target="UVqMz0SO6O-b6ly85-nw-11">
          <mxGeometry relative="1" as="geometry" />
        </mxCell>
        <mxCell id="UVqMz0SO6O-b6ly85-nw-18" value="&lt;font style=&quot;font-size: 14px;&quot;&gt;直接修改value&lt;/font&gt;" style="rounded=1;whiteSpace=wrap;html=1;" vertex="1" parent="1">
          <mxGeometry x="709.5" y="311" width="120" height="59" as="geometry" />
        </mxCell>
        <mxCell id="UVqMz0SO6O-b6ly85-nw-27" style="edgeStyle=orthogonalEdgeStyle;rounded=0;orthogonalLoop=1;jettySize=auto;html=1;exitX=0.5;exitY=1;exitDx=0;exitDy=0;entryX=0.5;entryY=0;entryDx=0;entryDy=0;fontSize=14;" edge="1" parent="1" source="UVqMz0SO6O-b6ly85-nw-25" target="UVqMz0SO6O-b6ly85-nw-26">
          <mxGeometry relative="1" as="geometry" />
        </mxCell>
        <mxCell id="UVqMz0SO6O-b6ly85-nw-28" value="是" style="edgeLabel;html=1;align=center;verticalAlign=middle;resizable=0;points=[];fontSize=14;" vertex="1" connectable="0" parent="UVqMz0SO6O-b6ly85-nw-27">
          <mxGeometry x="-0.1579" y="-3" relative="1" as="geometry">
            <mxPoint as="offset" />
          </mxGeometry>
        </mxCell>
        <mxCell id="UVqMz0SO6O-b6ly85-nw-30" style="edgeStyle=orthogonalEdgeStyle;rounded=0;orthogonalLoop=1;jettySize=auto;html=1;exitX=1;exitY=0.5;exitDx=0;exitDy=0;entryX=0.5;entryY=0;entryDx=0;entryDy=0;" edge="1" parent="1" source="UVqMz0SO6O-b6ly85-nw-25" target="UVqMz0SO6O-b6ly85-nw-29">
          <mxGeometry relative="1" as="geometry" />
        </mxCell>
        <mxCell id="UVqMz0SO6O-b6ly85-nw-31" value="否" style="edgeLabel;html=1;align=center;verticalAlign=middle;resizable=0;points=[];fontSize=14;" vertex="1" connectable="0" parent="UVqMz0SO6O-b6ly85-nw-30">
          <mxGeometry x="-0.4499" y="2" relative="1" as="geometry">
            <mxPoint y="1" as="offset" />
          </mxGeometry>
        </mxCell>
        <mxCell id="UVqMz0SO6O-b6ly85-nw-25" value="&lt;font style=&quot;font-size: 14px;&quot;&gt;该节点是否TreeNode类型&lt;/font&gt;" style="rhombus;whiteSpace=wrap;html=1;" vertex="1" parent="1">
          <mxGeometry x="869" y="311" width="195" height="59" as="geometry" />
        </mxCell>
        <mxCell id="UVqMz0SO6O-b6ly85-nw-34" style="edgeStyle=orthogonalEdgeStyle;rounded=0;orthogonalLoop=1;jettySize=auto;html=1;exitX=0;exitY=0.5;exitDx=0;exitDy=0;entryX=1;entryY=0.5;entryDx=0;entryDy=0;" edge="1" parent="1" source="UVqMz0SO6O-b6ly85-nw-26" target="UVqMz0SO6O-b6ly85-nw-11">
          <mxGeometry relative="1" as="geometry" />
        </mxCell>
        <mxCell id="UVqMz0SO6O-b6ly85-nw-26" value="&lt;font style=&quot;font-size: 14px;&quot;&gt;把新元素插入红黑树中&lt;/font&gt;" style="rounded=1;whiteSpace=wrap;html=1;" vertex="1" parent="1">
          <mxGeometry x="907" y="417" width="120" height="60" as="geometry" />
        </mxCell>
        <mxCell id="UVqMz0SO6O-b6ly85-nw-37" style="edgeStyle=orthogonalEdgeStyle;rounded=0;orthogonalLoop=1;jettySize=auto;html=1;exitX=0.5;exitY=1;exitDx=0;exitDy=0;entryX=0.5;entryY=0;entryDx=0;entryDy=0;" edge="1" parent="1" source="UVqMz0SO6O-b6ly85-nw-29" target="UVqMz0SO6O-b6ly85-nw-36">
          <mxGeometry relative="1" as="geometry" />
        </mxCell>
        <mxCell id="UVqMz0SO6O-b6ly85-nw-29" value="&lt;font style=&quot;font-size: 14px;&quot;&gt;遍历链表，若找到key相同节点就修改其value，如果找不到就尾插法&lt;/font&gt;" style="rounded=1;whiteSpace=wrap;html=1;" vertex="1" parent="1">
          <mxGeometry x="1056" y="421" width="167" height="52" as="geometry" />
        </mxCell>
        <mxCell id="UVqMz0SO6O-b6ly85-nw-39" style="edgeStyle=orthogonalEdgeStyle;rounded=0;orthogonalLoop=1;jettySize=auto;html=1;exitX=0;exitY=0.5;exitDx=0;exitDy=0;entryX=1;entryY=0.5;entryDx=0;entryDy=0;" edge="1" parent="1" source="UVqMz0SO6O-b6ly85-nw-36" target="UVqMz0SO6O-b6ly85-nw-38">
          <mxGeometry relative="1" as="geometry" />
        </mxCell>
        <mxCell id="UVqMz0SO6O-b6ly85-nw-40" value="是" style="edgeLabel;html=1;align=center;verticalAlign=middle;resizable=0;points=[];fontSize=14;" vertex="1" connectable="0" parent="UVqMz0SO6O-b6ly85-nw-39">
          <mxGeometry x="-0.0103" y="-1" relative="1" as="geometry">
            <mxPoint y="-1" as="offset" />
          </mxGeometry>
        </mxCell>
        <mxCell id="UVqMz0SO6O-b6ly85-nw-43" style="edgeStyle=orthogonalEdgeStyle;rounded=0;orthogonalLoop=1;jettySize=auto;html=1;exitX=0.5;exitY=1;exitDx=0;exitDy=0;entryX=0.5;entryY=1;entryDx=0;entryDy=0;" edge="1" parent="1" source="UVqMz0SO6O-b6ly85-nw-36" target="UVqMz0SO6O-b6ly85-nw-11">
          <mxGeometry relative="1" as="geometry" />
        </mxCell>
        <mxCell id="UVqMz0SO6O-b6ly85-nw-44" value="&lt;font style=&quot;font-size: 14px;&quot;&gt;否&lt;/font&gt;" style="edgeLabel;html=1;align=center;verticalAlign=middle;resizable=0;points=[];" vertex="1" connectable="0" parent="UVqMz0SO6O-b6ly85-nw-43">
          <mxGeometry x="-0.7011" y="2" relative="1" as="geometry">
            <mxPoint x="-13" y="-4" as="offset" />
          </mxGeometry>
        </mxCell>
        <mxCell id="UVqMz0SO6O-b6ly85-nw-36" value="&lt;font style=&quot;font-size: 14px;&quot;&gt;是否达到设定阈值&lt;/font&gt;" style="rhombus;whiteSpace=wrap;html=1;" vertex="1" parent="1">
          <mxGeometry x="1048.5" y="515" width="182" height="79" as="geometry" />
        </mxCell>
        <mxCell id="UVqMz0SO6O-b6ly85-nw-41" style="edgeStyle=orthogonalEdgeStyle;rounded=0;orthogonalLoop=1;jettySize=auto;html=1;exitX=0;exitY=0.5;exitDx=0;exitDy=0;entryX=0.5;entryY=1;entryDx=0;entryDy=0;" edge="1" parent="1" source="UVqMz0SO6O-b6ly85-nw-38" target="UVqMz0SO6O-b6ly85-nw-11">
          <mxGeometry relative="1" as="geometry" />
        </mxCell>
        <mxCell id="UVqMz0SO6O-b6ly85-nw-38" value="&lt;font style=&quot;font-size: 14px;&quot;&gt;调整Node[]长度或链表变为树&lt;/font&gt;" style="rounded=1;whiteSpace=wrap;html=1;" vertex="1" parent="1">
          <mxGeometry x="871" y="525" width="120" height="60" as="geometry" />
        </mxCell>
      </root>
    </mxGraphModel>
  </diagram>
</mxfile>
